<svg xmlns="http://www.w3.org/2000/svg" xmlns:xlink="http://www.w3.org/1999/xlink" width="1920" zoomAndPan="magnify" viewBox="0 0 1440 809.999993" height="1080" preserveAspectRatio="xMidYMid meet" version="1.0"><rect x="-144" width="1728" fill="#ffffff" y="-80.999999" height="971.999992" fill-opacity="1"/><rect x="-144" width="1728" fill="#ffffff" y="-80.999999" height="971.999992" fill-opacity="1"/><path fill="#000000" d="M 606.574219 352.96875 C 602.273438 353.785156 598.917969 358.222656 599.289062 362.605469 C 599.625 366.578125 602.328125 369.867188 606.09375 370.878906 C 607.308594 371.207031 609.820312 371.164062 611.089844 370.796875 C 613.816406 370.003906 616.265625 367.582031 617.234375 364.722656 C 617.34375 364.40625 618.566406 364.390625 639.550781 364.402344 C 659.78125 364.417969 661.675781 364.445312 660.894531 364.710938 C 658.160156 365.648438 654.125 367.289062 651.589844 368.503906 C 634.84375 376.515625 621.390625 390.710938 614.246094 407.921875 C 611.335938 414.929688 609.742188 421.222656 608.863281 429.183594 C 608.699219 430.640625 608.523438 431.910156 608.464844 432 C 608.410156 432.09375 606.820312 432.167969 604.9375 432.167969 L 601.511719 432.167969 L 601.511719 450.5 L 610.726562 450.449219 L 619.9375 450.398438 L 619.988281 441.28125 L 620.035156 432.167969 L 613.351562 432.167969 L 613.351562 431.128906 C 613.351562 428.210938 614.726562 420.902344 616.136719 416.320312 C 618.910156 407.324219 622.789062 399.984375 628.839844 392.285156 C 630.839844 389.742188 636.882812 383.667969 639.425781 381.644531 C 647.644531 375.097656 656.339844 370.671875 666.144531 368.039062 C 668.660156 367.363281 672.839844 366.535156 674.164062 366.453125 L 675.117188 366.394531 L 675.171875 368.828125 L 675.226562 371.265625 L 684.335938 371.214844 L 693.449219 371.167969 L 693.503906 368.734375 C 693.539062 366.972656 693.621094 366.296875 693.789062 366.300781 C 694.339844 366.300781 698.628906 367.089844 700.515625 367.535156 C 705.863281 368.800781 710.164062 370.332031 715.214844 372.773438 C 722.742188 376.414062 728.796875 380.71875 734.695312 386.625 C 744.8125 396.753906 751.492188 409.214844 754.25 423.097656 C 754.890625 426.320312 755.523438 431.394531 755.347656 431.859375 C 755.246094 432.125 754.75 432.167969 751.59375 432.167969 L 747.960938 432.167969 L 747.960938 450.5 L 757.175781 450.449219 L 766.386719 450.398438 L 766.386719 432.261719 L 763.238281 432.167969 L 760.09375 432.070312 L 759.867188 429.589844 C 758.746094 417.265625 754.347656 405.085938 747.183594 394.460938 C 738.023438 380.878906 723.890625 370.085938 708.675781 365.058594 C 707.808594 364.773438 707.101562 364.503906 707.101562 364.464844 C 707.101562 364.421875 716.886719 364.390625 728.847656 364.390625 L 750.597656 364.390625 L 750.890625 365.242188 C 752.660156 370.4375 759.320312 372.734375 764.238281 369.847656 C 765.1875 369.289062 766.820312 367.648438 767.410156 366.652344 C 769.035156 363.921875 769.003906 360.050781 767.335938 357.203125 C 766.089844 355.078125 763.449219 353.324219 760.855469 352.894531 C 756.695312 352.203125 752.128906 354.902344 750.835938 358.816406 L 750.574219 359.617188 L 693.542969 359.617188 L 693.542969 352.742188 L 675.214844 352.742188 L 675.214844 359.617188 L 646.335938 359.609375 L 617.457031 359.605469 L 616.738281 358.089844 C 614.894531 354.195312 610.84375 352.152344 606.574219 352.96875 M 676.003906 385.152344 C 675.835938 385.464844 675.007812 387.417969 671.203125 396.464844 C 669.996094 399.328125 668.785156 402.191406 667.574219 405.054688 C 666.394531 407.839844 665.214844 410.628906 664.957031 411.261719 C 664.535156 412.277344 662.679688 416.679688 652.09375 441.777344 L 649.453125 448.042969 L 655.207031 458.003906 C 658.371094 463.484375 661.820312 469.46875 662.867188 471.304688 C 663.914062 473.144531 664.902344 474.796875 665.058594 474.980469 C 665.328125 475.292969 666.464844 475.316406 683.894531 475.316406 C 698.449219 475.316406 702.511719 475.265625 702.746094 475.078125 C 702.910156 474.945312 704.527344 472.261719 706.339844 469.109375 C 708.152344 465.960938 711.609375 459.964844 714.023438 455.785156 C 717.207031 450.265625 718.378906 448.070312 718.308594 447.765625 C 718.257812 447.535156 717.355469 445.324219 716.3125 442.859375 C 714.710938 439.078125 704.128906 413.996094 694.402344 390.925781 L 691.867188 384.914062 L 688.695312 384.859375 L 685.523438 384.808594 L 685.523438 444.117188 L 686.523438 444.777344 C 689.828125 446.960938 689.042969 451.972656 685.222656 453.085938 C 682.503906 453.875 679.808594 452.105469 679.328125 449.214844 C 679.042969 447.519531 680.152344 445.367188 681.722656 444.566406 L 682.46875 444.1875 L 682.46875 384.816406 L 679.324219 384.816406 C 676.527344 384.816406 676.164062 384.855469 676.003906 385.152344 M 665.222656 479.640625 C 665.152344 479.710938 665.09375 483.878906 665.09375 488.902344 L 665.09375 498.035156 L 683.949219 497.988281 L 702.804688 497.9375 L 702.804688 479.609375 L 684.078125 479.5625 C 673.777344 479.535156 665.292969 479.570312 665.222656 479.640625 " fill-opacity="1" fill-rule="evenodd"/><path fill="#000000" d="M 276.898438 324.121094 C 273.980469 325.054688 271.746094 327.28125 270.742188 330.253906 C 270.328125 331.472656 270.320312 331.710938 270.261719 343.953125 L 270.199219 356.410156 L 350.605469 356.410156 L 350.605469 344.3125 C 350.605469 337.015625 350.527344 331.808594 350.410156 331.1875 C 350.132812 329.699219 349.199219 327.925781 348.027344 326.660156 C 346.9375 325.484375 345.75 324.742188 343.996094 324.136719 C 342.929688 323.769531 342.207031 323.761719 310.429688 323.773438 C 279.941406 323.78125 277.886719 323.804688 276.898438 324.121094 M 280.582031 330.820312 C 278.847656 331.234375 277.898438 332.773438 278.285156 334.550781 C 278.488281 335.488281 279.425781 336.496094 280.332031 336.757812 C 280.78125 336.886719 291.019531 336.933594 310.921875 336.898438 C 340.796875 336.839844 340.839844 336.839844 341.367188 336.445312 C 342.230469 335.800781 342.632812 335.109375 342.730469 334.105469 C 342.84375 332.929688 342.269531 331.78125 341.253906 331.152344 L 340.578125 330.730469 L 310.890625 330.703125 C 294.558594 330.683594 280.921875 330.738281 280.582031 330.820312 M 280.238281 342.675781 C 279.921875 342.765625 279.390625 343.125 279.0625 343.46875 C 277.632812 344.964844 277.972656 347.226562 279.785156 348.296875 C 280.425781 348.671875 280.777344 348.679688 310.507812 348.679688 L 340.578125 348.679688 L 341.300781 348.230469 C 343.148438 347.082031 343.261719 344.445312 341.523438 343.117188 L 340.800781 342.566406 L 310.808594 342.535156 C 293.832031 342.519531 280.566406 342.578125 280.238281 342.675781 M 245.90625 347.960938 C 245.820312 348.101562 244.679688 352.492188 242.320312 361.757812 C 241.691406 364.222656 240.878906 367.375 240.519531 368.761719 C 239.714844 371.839844 239.664062 373.265625 240.3125 374.644531 C 240.839844 375.753906 241.402344 376.324219 242.386719 376.734375 C 243.019531 377 250.089844 377.03125 310.503906 377.03125 L 377.910156 377.03125 L 378.742188 376.640625 C 380.109375 375.996094 381.152344 374.144531 381.152344 372.359375 C 381.152344 371.746094 379.691406 365.765625 377.214844 356.21875 C 376.546875 353.65625 375.882812 351.097656 375.214844 348.535156 L 375.027344 347.820312 L 351.75 347.820312 L 351.75 352.402344 L 365.980469 352.402344 L 366.984375 358.558594 C 367.539062 361.945312 367.988281 364.78125 367.984375 364.859375 C 367.980469 364.9375 342.117188 365 310.507812 365 C 253.347656 365 253.035156 365 253.035156 364.625 C 253.035156 364.414062 253.464844 361.648438 253.988281 358.472656 C 254.515625 355.296875 254.945312 352.632812 254.945312 352.550781 C 254.945312 352.46875 258.167969 352.402344 262.105469 352.402344 L 269.265625 352.402344 L 269.265625 347.820312 L 257.628906 347.820312 C 251.230469 347.820312 245.953125 347.882812 245.90625 347.960938 M 236.136719 349.882812 C 234.09375 350.589844 232.390625 352.214844 231.570312 354.238281 C 231.320312 354.855469 230.242188 357.636719 229.179688 360.417969 C 228.117188 363.203125 227.125 365.78125 226.976562 366.148438 C 226.828125 366.515625 225.148438 370.894531 223.25 375.882812 C 221.351562 380.871094 219.65625 385.277344 219.488281 385.671875 C 219.316406 386.066406 219.222656 386.429688 219.273438 386.484375 C 219.324219 386.535156 260.402344 386.554688 310.554688 386.527344 L 401.742188 386.480469 L 400.878906 384.1875 C 398.546875 378.019531 396.578125 372.859375 396.332031 372.257812 C 396.183594 371.890625 395.195312 369.3125 394.136719 366.527344 C 393.078125 363.746094 392.089844 361.167969 391.941406 360.800781 C 391.792969 360.433594 391.144531 358.757812 390.503906 357.078125 C 389.863281 355.398438 389.136719 353.679688 388.894531 353.261719 C 388.230469 352.125 386.929688 350.914062 385.640625 350.234375 L 384.496094 349.632812 L 380.515625 349.570312 C 376.738281 349.511719 376.542969 349.527344 376.640625 349.855469 C 376.695312 350.046875 377.957031 354.929688 379.441406 360.707031 C 381.984375 370.59375 382.136719 371.289062 382.0625 372.636719 C 381.957031 374.445312 381.378906 375.820312 380.304688 376.808594 C 379.859375 377.21875 379.164062 377.671875 378.75 377.816406 C 378.121094 378.039062 367.433594 378.078125 310.316406 378.078125 L 242.628906 378.078125 L 241.578125 377.492188 C 240.4375 376.851562 239.4375 375.601562 239.101562 374.390625 C 238.824219 373.386719 238.859375 371.175781 239.175781 369.957031 C 240.574219 364.554688 244.25 349.921875 244.25 349.753906 C 244.25 349.597656 243.21875 349.539062 240.671875 349.542969 C 237.777344 349.546875 236.910156 349.613281 236.136719 349.882812 M 219.132812 388.347656 C 219.082031 388.480469 219.0625 403.539062 219.09375 421.804688 C 219.140625 453.496094 219.160156 455.070312 219.496094 456.070312 C 220.507812 459.085938 222.464844 461.519531 224.910156 462.804688 C 227.414062 464.121094 227.582031 464.140625 236.679688 464.234375 C 244.1875 464.308594 244.851562 464.34375 244.761719 464.632812 C 244.710938 464.808594 244.285156 465.808594 243.816406 466.859375 C 240.335938 474.664062 235.660156 485.410156 235.660156 485.597656 C 235.660156 485.632812 269.339844 485.664062 310.507812 485.664062 C 351.671875 485.664062 385.355469 485.632812 385.355469 485.59375 C 385.355469 485.554688 384.789062 484.242188 384.097656 482.679688 C 383.40625 481.121094 381.636719 477.09375 380.167969 473.730469 C 378.695312 470.371094 377.164062 466.878906 376.765625 465.96875 L 376.035156 464.316406 L 384.273438 464.230469 C 393.300781 464.136719 393.378906 464.128906 395.847656 462.921875 C 397.363281 462.175781 399.519531 460.09375 400.398438 458.515625 C 400.730469 457.914062 401.179688 456.800781 401.390625 456.035156 C 401.769531 454.667969 401.773438 454.144531 401.773438 421.375 L 401.773438 388.101562 L 310.5 388.101562 C 236.582031 388.101562 219.210938 388.148438 219.132812 388.347656 M 250.742188 398.710938 C 250.0625 398.859375 248.945312 399.253906 248.261719 399.585938 C 246.578125 400.410156 244.339844 402.648438 243.519531 404.332031 C 242.34375 406.738281 242.335938 406.886719 242.386719 422.125 L 242.4375 435.917969 L 310.410156 435.925781 L 378.386719 435.929688 L 378.441406 421.898438 C 378.484375 411.882812 378.4375 407.5625 378.28125 406.8125 C 377.441406 402.785156 373.726562 399.234375 369.699219 398.609375 C 368.882812 398.480469 348.496094 398.421875 310.21875 398.429688 C 260.90625 398.441406 251.792969 398.484375 250.742188 398.710938 M 254.460938 457.867188 C 249.265625 468.304688 245.015625 476.9375 245.015625 477.054688 C 245.015625 477.207031 262.867188 477.265625 310.523438 477.265625 C 346.550781 477.265625 376 477.195312 375.964844 477.113281 C 375.929688 477.03125 371.621094 468.394531 366.386719 457.925781 L 356.875 438.890625 L 263.910156 438.890625 Z M 254.460938 457.867188 " fill-opacity="1" fill-rule="evenodd"/><path fill="#000000" d="M 1048.554688 335.511719 C 1048.191406 335.695312 1047.695312 336.136719 1047.457031 336.496094 L 1047.023438 337.144531 L 1047.023438 380.027344 C 1047.023438 421.164062 1047.039062 422.941406 1047.375 423.578125 C 1047.589844 423.992188 1048.039062 424.40625 1048.558594 424.671875 L 1049.398438 425.101562 L 1221.992188 425.101562 L 1222.804688 424.710938 C 1223.398438 424.421875 1223.726562 424.09375 1224.015625 423.5 L 1224.410156 422.683594 L 1224.359375 379.835938 L 1224.308594 336.992188 L 1223.851562 336.347656 C 1223.601562 335.996094 1223.109375 335.589844 1222.761719 335.441406 C 1222.222656 335.21875 1208.953125 335.175781 1135.671875 335.179688 C 1053.746094 335.179688 1049.1875 335.195312 1048.554688 335.511719 M 1088.132812 339.753906 C 1086.863281 340.527344 1086.839844 340.65625 1086.78125 347.96875 L 1086.722656 354.554688 L 1081.691406 359.617188 C 1078.925781 362.398438 1076.566406 364.863281 1076.449219 365.09375 C 1075.898438 366.175781 1076.414062 367.929688 1077.472656 368.585938 C 1078.082031 368.960938 1078.402344 368.972656 1089.597656 368.972656 C 1102.476562 368.972656 1101.867188 369.035156 1102.605469 367.59375 C 1103.015625 366.800781 1103.066406 366.011719 1102.765625 365.210938 C 1102.65625 364.917969 1100.25 362.351562 1097.421875 359.515625 L 1092.277344 354.355469 L 1092.277344 347.8125 C 1092.277344 340.582031 1092.261719 340.476562 1091.074219 339.753906 C 1090.707031 339.527344 1090.121094 339.378906 1089.605469 339.378906 C 1089.085938 339.378906 1088.5 339.527344 1088.132812 339.753906 M 1180.335938 339.765625 C 1179.972656 339.988281 1179.550781 340.492188 1179.335938 340.957031 C 1179 341.699219 1178.96875 342.265625 1178.96875 348.160156 L 1178.960938 354.558594 L 1173.984375 359.523438 C 1171.25 362.25 1168.886719 364.714844 1168.734375 365 C 1168.117188 366.160156 1168.5625 367.886719 1169.65625 368.558594 C 1170.316406 368.96875 1170.382812 368.972656 1181.726562 368.972656 C 1194.457031 368.972656 1194.011719 369.015625 1194.777344 367.648438 C 1195.230469 366.84375 1195.300781 366.039062 1194.988281 365.210938 C 1194.878906 364.917969 1192.472656 362.351562 1189.644531 359.515625 L 1184.5 354.355469 L 1184.5 347.8125 C 1184.5 340.582031 1184.484375 340.476562 1183.296875 339.753906 C 1182.488281 339.257812 1181.15625 339.265625 1180.335938 339.765625 M 1124.101562 427.902344 C 1124.03125 427.972656 1123.972656 441.375 1123.972656 457.679688 L 1123.972656 487.332031 L 1107.21875 487.386719 C 1088.476562 487.445312 1089.96875 487.328125 1088.601562 488.84375 C 1087.15625 490.441406 1087.15625 492.644531 1088.601562 494.242188 C 1088.980469 494.660156 1089.554688 495.148438 1089.875 495.328125 C 1090.421875 495.625 1093.664062 495.652344 1135.230469 495.699219 C 1185.515625 495.753906 1181.367188 495.875 1182.730469 494.324219 C 1183.472656 493.480469 1183.925781 492.410156 1183.925781 491.503906 C 1183.925781 490.25 1183.042969 488.792969 1181.777344 487.957031 L 1180.996094 487.4375 L 1164.226562 487.386719 L 1147.460938 487.332031 L 1147.410156 457.601562 L 1147.363281 427.871094 L 1135.796875 427.820312 C 1129.433594 427.792969 1124.171875 427.832031 1124.101562 427.902344 " fill-opacity="1" fill-rule="evenodd"/></svg>